<svg width="512" height="512" viewBox="0 0 512 512" fill="none" xmlns="http://www.w3.org/2000/svg">
  <defs>
    <linearGradient id="panel" x1="70" y1="58" x2="438" y2="454" gradientUnits="userSpaceOnUse">
      <stop stop-color="#122031"/>
      <stop offset="1" stop-color="#09111A"/>
    </linearGradient>
    <linearGradient id="beamL" x1="150" y1="126" x2="248" y2="352" gradientUnits="userSpaceOnUse">
      <stop stop-color="#7CF9E8"/>
      <stop offset="1" stop-color="#2DD4BF"/>
    </linearGradient>
    <linearGradient id="beamR" x1="272" y1="110" x2="350" y2="348" gradientUnits="userSpaceOnUse">
      <stop stop-color="#7DD3FC"/>
      <stop offset="1" stop-color="#8B5CF6"/>
    </linearGradient>
    <linearGradient id="word" x1="196" y1="334" x2="326" y2="388" gradientUnits="userSpaceOnUse">
      <stop stop-color="#F8FBFF"/>
      <stop offset="1" stop-color="#D6E8F6"/>
    </linearGradient>
    <filter id="softGlow" x="112" y="90" width="288" height="260" filterUnits="userSpaceOnUse" color-interpolation-filters="sRGB">
      <feGaussianBlur stdDeviation="18" result="blur"/>
      <feComposite in="SourceGraphic" in2="blur" operator="over"/>
    </filter>
  </defs>

  <rect x="36" y="36" width="440" height="440" rx="124" fill="#050B12"/>
  <rect x="52" y="52" width="408" height="408" rx="112" fill="url(#panel)" stroke="#1B3345" stroke-width="4"/>
  <rect x="68" y="68" width="376" height="376" rx="96" stroke="rgba(124,249,232,0.12)"/>

  <g filter="url(#softGlow)">
    <path d="M162 332L228 140H268L202 332H162Z" fill="url(#beamL)"/>
    <path d="M310 332L246 140H286L352 332H310Z" fill="url(#beamR)"/>
    <path d="M204 250H308L292 292H220L204 250Z" fill="#E9FAFF" fill-opacity="0.92"/>
  </g>

  <path d="M172 360H340" stroke="rgba(145,183,204,0.28)" stroke-width="2" stroke-linecap="round"/>
  <text x="177" y="398" fill="url(#word)" font-size="84" font-weight="800" font-family="Inter, Arial, sans-serif" letter-spacing="8">314</text>
</svg>
