<svg width="1200" height="630" viewBox="0 0 1200 630" fill="none" xmlns="http://www.w3.org/2000/svg">
  <defs>
    <linearGradient id="bg" x1="120" y1="60" x2="1030" y2="580" gradientUnits="userSpaceOnUse">
      <stop stop-color="#08111B"/>
      <stop offset="0.5" stop-color="#0D1826"/>
      <stop offset="1" stop-color="#071018"/>
    </linearGradient>
    <linearGradient id="stroke" x1="162" y1="126" x2="444" y2="408" gradientUnits="userSpaceOnUse">
      <stop stop-color="#5EEAD4"/>
      <stop offset="0.52" stop-color="#38BDF8"/>
      <stop offset="1" stop-color="#8B5CF6"/>
    </linearGradient>
    <linearGradient id="word" x1="512" y1="160" x2="1040" y2="420" gradientUnits="userSpaceOnUse">
      <stop stop-color="#FFFFFF"/>
      <stop offset="0.65" stop-color="#D9FFF6"/>
      <stop offset="1" stop-color="#BEE8FF"/>
    </linearGradient>
  </defs>
  <rect width="1200" height="630" rx="42" fill="#040A10"/>
  <rect x="24" y="24" width="1152" height="582" rx="34" fill="url(#bg)" stroke="rgba(94,234,212,0.18)"/>
  <circle cx="1046" cy="114" r="130" fill="#0E1C2B" opacity="0.55"/>
  <circle cx="1046" cy="114" r="96" fill="#11263A" opacity="0.7"/>
  <rect x="116" y="116" width="336" height="336" rx="88" fill="#102131" stroke="url(#stroke)" stroke-width="8"/>
  <path d="M188 225C206 201 235 188 271 188C317 188 351 212 351 248C351 272 336 288 310 298C342 308 365 332 365 368C365 417 325 448 270 448C231 448 199 433 180 406" stroke="#F8FCFF" stroke-width="22" stroke-linecap="round" stroke-linejoin="round"/>
  <path d="M240 214H320" stroke="#F8FCFF" stroke-width="22" stroke-linecap="round"/>
  <path d="M251 296H323" stroke="#F8FCFF" stroke-width="22" stroke-linecap="round"/>
  <path d="M247 380H314" stroke="#F8FCFF" stroke-width="22" stroke-linecap="round"/>
  <path d="M145 348H256" stroke="#F8FCFF" stroke-width="22" stroke-linecap="round"/>
  <path d="M271 194V420" stroke="#F8FCFF" stroke-width="22" stroke-linecap="round"/>
  <path d="M346 194V420" stroke="#F8FCFF" stroke-width="22" stroke-linecap="round"/>
  <path d="M346 308H271" stroke="#F8FCFF" stroke-width="22" stroke-linecap="round"/>

  <text x="504" y="244" fill="url(#word)" font-size="92" font-weight="800" font-family="Inter, Arial, sans-serif" letter-spacing="-3">AUTONOMOUS 314</text>
  <text x="508" y="307" fill="#91B7CC" font-size="30" font-weight="600" font-family="Inter, Arial, sans-serif" letter-spacing="6">OPEN MEME LAUNCH PROTOCOL</text>
  <text x="508" y="390" fill="#D2DEE9" font-size="38" font-weight="600" font-family="Inter, Arial, sans-serif">Build your own launchpad in 5 minutes.</text>
  <text x="508" y="442" fill="#89A4B9" font-size="26" font-weight="500" font-family="Inter, Arial, sans-serif">Contract-native market • Automatic DEX graduation • Whitelist & taxed families</text>
</svg>
