<svg width="1200" height="320" viewBox="0 0 1200 320" fill="none" xmlns="http://www.w3.org/2000/svg">
  <defs>
    <linearGradient id="panel" x1="32" y1="32" x2="288" y2="288" gradientUnits="userSpaceOnUse">
      <stop stop-color="#132336"/>
      <stop offset="1" stop-color="#09111A"/>
    </linearGradient>
    <linearGradient id="accentL" x1="96" y1="84" x2="164" y2="168" gradientUnits="userSpaceOnUse">
      <stop stop-color="#77F7E8"/>
      <stop offset="1" stop-color="#34B6FF"/>
    </linearGradient>
    <linearGradient id="accentR" x1="156" y1="84" x2="224" y2="168" gradientUnits="userSpaceOnUse">
      <stop stop-color="#55B7FF"/>
      <stop offset="1" stop-color="#8B5CF6"/>
    </linearGradient>
    <linearGradient id="word" x1="348" y1="88" x2="926" y2="230" gradientUnits="userSpaceOnUse">
      <stop stop-color="#FBFDFF"/>
      <stop offset="1" stop-color="#D8ECF8"/>
    </linearGradient>
  </defs>

  <rect x="24" y="24" width="272" height="272" rx="76" fill="#060D14"/>
  <rect x="32" y="32" width="256" height="256" rx="68" fill="url(#panel)" stroke="#1B3345" stroke-width="4"/>
  <path d="M96 88H136L162 144H122L96 88Z" fill="url(#accentL)"/>
  <path d="M136 88H160L174 122H150L136 88Z" fill="#8DEDF4" opacity="0.92"/>
  <path d="M224 88H184L158 144H198L224 88Z" fill="url(#accentR)"/>
  <path d="M184 88H160L146 122H170L184 88Z" fill="#63C5FF" opacity="0.94"/>
  <text x="160" y="248" text-anchor="middle" fill="#F8FBFF" font-size="126" font-weight="900" font-family="Inter, Arial, sans-serif" letter-spacing="-8">314</text>

  <text x="348" y="136" fill="url(#word)" font-size="78" font-weight="800" font-family="Inter, Arial, sans-serif" letter-spacing="-2">AUTONOMOUS 314</text>
  <text x="352" y="190" fill="#90ABC0" font-size="24" font-weight="600" font-family="Inter, Arial, sans-serif" letter-spacing="5">OPEN MEME LAUNCH PROTOCOL</text>
</svg>
