<svg width="1200" height="320" viewBox="0 0 1200 320" fill="none" xmlns="http://www.w3.org/2000/svg">
  <defs>
    <linearGradient id="panel" x1="32" y1="32" x2="288" y2="288" gradientUnits="userSpaceOnUse">
      <stop stop-color="#122031"/>
      <stop offset="1" stop-color="#09111A"/>
    </linearGradient>
    <linearGradient id="beamL" x1="96" y1="72" x2="154" y2="222" gradientUnits="userSpaceOnUse">
      <stop stop-color="#7CF9E8"/>
      <stop offset="1" stop-color="#2DD4BF"/>
    </linearGradient>
    <linearGradient id="beamR" x1="172" y1="72" x2="228" y2="222" gradientUnits="userSpaceOnUse">
      <stop stop-color="#7DD3FC"/>
      <stop offset="1" stop-color="#8B5CF6"/>
    </linearGradient>
    <linearGradient id="word" x1="348" y1="88" x2="926" y2="230" gradientUnits="userSpaceOnUse">
      <stop stop-color="#FBFDFF"/>
      <stop offset="1" stop-color="#D8ECF8"/>
    </linearGradient>
  </defs>

  <rect x="24" y="24" width="272" height="272" rx="76" fill="#060D14"/>
  <rect x="32" y="32" width="256" height="256" rx="68" fill="url(#panel)" stroke="#1B3345" stroke-width="4"/>
  <path d="M104 220L142 88H168L130 220H104Z" fill="url(#beamL)"/>
  <path d="M188 220L150 88H176L214 220H188Z" fill="url(#beamR)"/>
  <path d="M128 154H192L182 184H138L128 154Z" fill="#EAFBFF"/>
  <path d="M102 242H218" stroke="rgba(145,183,204,0.24)" stroke-width="2" stroke-linecap="round"/>
  <text x="104" y="270" fill="#F8FBFF" font-size="54" font-weight="800" font-family="Inter, Arial, sans-serif" letter-spacing="6">314</text>

  <text x="348" y="136" fill="url(#word)" font-size="78" font-weight="800" font-family="Inter, Arial, sans-serif" letter-spacing="-2">AUTONOMOUS 314</text>
  <text x="352" y="190" fill="#90ABC0" font-size="24" font-weight="600" font-family="Inter, Arial, sans-serif" letter-spacing="5">OPEN MEME LAUNCH PROTOCOL</text>
</svg>
